<?xml version="1.0" encoding="UTF-8" standalone="no"?>
<svg
   xmlns:dc="http://purl.org/dc/elements/1.1/"
   xmlns:cc="http://creativecommons.org/ns#"
   xmlns:rdf="http://www.w3.org/1999/02/22-rdf-syntax-ns#"
   xmlns:svg="http://www.w3.org/2000/svg"
   xmlns="http://www.w3.org/2000/svg"
   xmlns:sodipodi="http://sodipodi.sourceforge.net/DTD/sodipodi-0.dtd"
   xmlns:inkscape="http://www.inkscape.org/namespaces/inkscape"
   viewBox="8.23 53.07 193.32 162.08"
   version="1.1"
   id="svg44"
   sodipodi:docname="logo.svg"
   inkscape:version="1.0.2 (e86c870879, 2021-01-15)">
  <metadata
     id="metadata50">
    <rdf:RDF>
      <cc:Work
         rdf:about="">
        <dc:format>image/svg+xml</dc:format>
        <dc:type
           rdf:resource="http://purl.org/dc/dcmitype/StillImage" />
      </cc:Work>
    </rdf:RDF>
  </metadata>
  <defs
     id="defs48" />
  <sodipodi:namedview
     pagecolor="#ffffff"
     bordercolor="#666666"
     borderopacity="1"
     objecttolerance="10"
     gridtolerance="10"
     guidetolerance="10"
     inkscape:pageopacity="0"
     inkscape:pageshadow="2"
     inkscape:window-width="1920"
     inkscape:window-height="1056"
     id="namedview46"
     showgrid="false"
     inkscape:zoom="6.9192457"
     inkscape:cx="82.891196"
     inkscape:cy="86.057697"
     inkscape:window-x="0"
     inkscape:window-y="0"
     inkscape:window-maximized="1"
     inkscape:current-layer="svg44" />
  <path
     style="fill:#69938a;stroke:#000;stroke-width:.999999px;stroke-linecap:butt;stroke-linejoin:miter;stroke-opacity:1;fill-opacity:1;--darkreader-inline-fill:#989082;--darkreader-inline-stroke:#e8e6e3"
     d="M299.117 547.06c-21.782 19.174-48.063 72.9-29.031 127.061 4.348-16.242 11.498-29.09 23.678-35.846-1.609 58.391 17.217 62.85 43.472 86.485 20.306 18.278 53.05 34.841 59.207 47.674 6.157-12.833 38.902-29.396 59.207-47.674 26.256-23.634 45.082-28.094 43.473-86.485 12.18 6.757 19.33 19.604 23.678 35.846 19.032-54.161-7.249-107.887-29.031-127.06-3.222 8.007-1.28 17.16-7.198 20.093.249-3.876.816-9.714-.65-10.771-15.082 48.424-27.581 22.674-34.426 54.357.643 8.156 22.127 41.543-3.654 69.8-2.327 18.116 6.336 37.675-14.244 53.398l-.803-6.635c-13.747 12.402-12.584 2.82-35.951 24.093l-.399.354-.402-.355c-23.367-21.274-22.205-11.69-35.951-24.092l-.803 6.635c-20.58-15.723-11.918-35.282-14.244-53.399-25.781-28.256-4.297-61.643-3.654-69.799-6.845-31.683-19.345-5.933-34.426-54.357-1.467 1.057-.9 6.895-.65 10.771-5.919-2.933-3.976-12.086-7.198-20.093z"
     transform="scale(.26458)"
     id="path2" />
  <path
     style="fill:#82b3a8;fill-opacity:1;stroke:#000;stroke-width:.264583px;stroke-linecap:butt;stroke-linejoin:miter;stroke-opacity:1;--darkreader-inline-fill:#88b7ac;--darkreader-inline-stroke:#e8e6e3"
     d="M137.076 160.194c2.295 3.55 5.15 7.104 1.248 18.167-1.15-4.297-3.759-6.728-6.265-9.484 1.607 10.129-3.43 17.815-6.447 18.61 2.609-7.653 4.817-10.39 2.511-25.179 1.57.02 5.147 1.171 7.65 3.09 1.184-1.693 1.303-5.204 1.303-5.204z"
     id="path4" />
  <path
     style="fill:#82b3a8;stroke:#000;stroke-width:.999999px;stroke-linecap:butt;stroke-linejoin:miter;stroke-opacity:1;fill-opacity:1;--darkreader-inline-fill:#88b7ac;--darkreader-inline-stroke:#e8e6e3"
     d="M274.803 605.459c-8.674 13.414-19.463 26.849-4.717 68.662 4.348-16.242 14.207-25.428 23.678-35.846-6.074 38.282 12.962 67.33 24.366 70.34-9.858-28.926-18.205-39.27-9.491-95.166-5.936.072-19.452 4.426-28.91 11.68-4.477-6.403-4.926-19.67-4.926-19.67z"
     transform="scale(.26458)"
     id="path6" />
  <path
     id="path8"
     style="fill:#2b432f;fill-opacity:1;stroke:#000000;stroke-width:0.26458px;stroke-linecap:butt;stroke-linejoin:miter;stroke-opacity:1"
     d="M 34.123047 1.0273438 C 38.594978 6.4763689 43.352216 11.648065 42.433594 22.337891 C 41.176839 19.376976 38.762136 17.405489 35.880859 15.832031 C 39.826541 30.993788 31.920016 33.721631 28.802734 33.6875 C 25.181428 33.648078 14.538268 19.079214 4.1542969 20.019531 C 18.642698 39.710369 16.812171 54.902072 13.283203 56.748047 C 8.9604952 59.009412 4.5243011 51.767094 2.0449219 44.226562 C -5.3500891 90.972557 30.253764 94.211287 37.900391 95 L 37.900391 119.14062 C 49.2305 132.48737 64.422142 146.12446 96.660156 161.04492 C 128.89844 146.1242 144.09228 132.48764 155.42188 119.14062 L 155.42188 95 C 163.06877 94.211287 198.6704 90.972557 191.27539 44.226562 C 188.79575 51.767094 184.36204 59.009412 180.03906 56.748047 C 176.50983 54.902072 174.67735 39.710369 189.16602 20.019531 C 178.78204 19.079214 168.13888 33.648078 164.51758 33.6875 C 161.4003 33.721631 153.49546 30.993788 157.44141 15.832031 C 154.56013 17.405489 152.14596 19.376976 150.88867 22.337891 C 149.97005 11.648065 154.72729 6.4763689 159.19922 1.0273438 C 130.46715 12.366184 138.31791 24.858985 139.41406 37.138672 C 132.79692 34.878365 126.76713 33.140947 121.22656 31.837891 C 114.02417 29.869945 106.22208 28.435074 96.660156 28.564453 C 87.099558 28.434809 79.299524 29.870209 72.097656 31.837891 C 66.556557 33.140947 60.526672 34.8781 53.908203 37.138672 C 55.004623 24.858985 62.854847 12.366184 34.123047 1.0273438 z M 44.599609 11.382812 C 54.879865 19.436628 49.462733 34.368799 46.080078 47.083984 C 43.795694 55.670135 42.717851 67.689408 49.460938 76.662109 C 45.495412 72.772783 41.266465 69.977286 39.880859 55.392578 C 39.011185 57.053347 38.165824 58.981094 37.789062 65.900391 C 34.801955 62.103668 32.833281 57.283602 31.041016 52.285156 C 23.744958 69.057412 34.308844 70.845254 34.292969 84.775391 C 40.835768 83.034454 33.771193 71.909099 32.763672 65.6875 C 44.254381 85.527031 58.740302 86.097702 74.300781 79.748047 L 74.300781 83.4375 C 66.333484 87.459381 56.455237 91.147746 44.595703 90.976562 C 36.955691 90.865968 17.225287 89.362176 8.3613281 72.146484 C 11.394738 75.045487 14.82644 77.361536 18.640625 79.119141 C 9.3424901 70.193005 7.3871887 63.941923 6.2402344 57.984375 C 12.992845 66.981682 19.501449 61.524169 20.402344 52.052734 C 21.2617 43.018121 16.367203 30.530557 12.957031 26.197266 C 20.323732 30.215707 22.58367 38.304055 30.712891 37.566406 C 30.450427 38.238439 28.891118 38.83851 27.279297 39.212891 C 38.649358 41.21629 41.111513 29.223917 40.363281 24.716797 C 42.870441 28.092309 42.471376 31.449719 42.238281 34.669922 C 44.990707 33.42719 49.879832 21.727626 44.599609 11.382812 z M 148.72461 11.384766 C 143.44461 21.728766 148.33394 33.428875 151.08594 34.671875 C 150.85294 31.451875 150.45198 28.09375 152.95898 24.71875 C 152.21098 29.22575 154.67492 41.217844 166.04492 39.214844 C 164.43392 38.839844 162.87238 38.240359 162.60938 37.568359 C 170.73937 38.306359 172.99919 30.215266 180.36719 26.197266 C 176.95719 30.530266 172.06287 43.019687 172.92188 52.054688 C 173.82188 61.526687 180.33198 66.981375 187.08398 57.984375 C 185.93698 63.942375 183.98064 70.195094 174.68164 79.121094 A 37.447 37.447 0 0 0 184.96289 72.148438 C 176.09889 89.364438 156.36656 90.868516 148.72656 90.978516 C 136.86656 91.150516 126.99044 87.4605 119.02344 83.4375 L 119.02344 79.75 C 134.58344 86.1 149.06955 85.529453 160.56055 65.689453 C 159.55355 71.910453 152.48825 83.036344 159.03125 84.777344 C 159.01525 70.847344 169.57725 69.057156 162.28125 52.285156 C 160.48925 57.283156 158.5212 62.106344 155.5332 65.902344 C 155.1562 58.982344 154.31236 57.055531 153.44336 55.394531 C 152.05736 69.979531 147.82733 72.774062 143.86133 76.664062 C 150.60533 67.690062 149.52814 55.670984 147.24414 47.083984 C 143.86114 34.368984 138.44461 19.438766 148.72461 11.384766 z M 107.76172 62.654297 C 114.83106 62.545546 113.73834 68.054806 114.72656 69.962891 C 116.94639 61.32065 121.20556 66.183346 134.75391 67.564453 C 134.16416 68.923071 133.72165 70.245865 127.80273 72.941406 L 130.51562 70.046875 C 126.35722 71.014179 125.48906 68.799951 121.52539 68.902344 C 116.30523 68.949439 117.90342 73.132486 114.77344 75.759766 L 116.42969 75.041016 C 115.43169 77.300793 115.49658 79.882629 115.51562 82.451172 L 113.60742 81.412109 C 115.63093 83.584311 116.83586 85.979895 116.54297 87.017578 C 109.20484 79.640823 103.95048 92.392357 98.988281 88.103516 C 99.381447 91.91532 100.86624 92.366414 102.27539 93.052734 C 101.22157 100.79699 101.6859 106.50608 104.22852 109.42969 L 104.37109 103.78906 C 109.58358 112.98666 112.35026 120.48932 107.20312 125.57031 C 106.87452 126.041 105.58711 127.84199 105.73633 132.09961 L 106.43164 131.6543 C 106.79094 134.5787 101.42819 136.74296 100.96094 136.75195 L 100.96484 135.50781 C 99.806777 136.59259 98.339297 137.52521 96.677734 137.4707 L 96.646484 137.4707 C 95.048686 137.50325 93.49247 136.6299 92.357422 135.50781 L 92.363281 136.75195 C 91.896298 136.74296 86.531325 134.57896 86.890625 131.6543 L 87.585938 132.09961 C 87.734896 127.84225 86.447484 126.041 86.119141 125.57031 C 80.971737 120.48932 83.740634 112.98639 88.953125 103.78906 L 89.09375 109.42969 C 91.636099 106.50581 92.100697 100.79699 91.046875 93.052734 C 92.455763 92.366149 93.941083 91.91532 94.333984 88.103516 C 89.371786 92.392357 84.117423 79.640823 76.779297 87.017578 C 76.486407 85.979895 77.691336 83.584311 79.714844 81.412109 L 77.806641 82.451172 C 77.82569 79.882629 77.890309 77.300529 76.892578 75.041016 L 78.550781 75.759766 C 75.4208 73.132486 77.018992 68.949439 71.798828 68.902344 C 67.834891 68.799951 66.965044 71.013915 62.806641 70.046875 L 65.521484 72.941406 C 59.602301 70.245865 59.158108 68.922807 58.568359 67.564453 C 72.116707 66.182816 76.37783 61.320385 78.597656 69.962891 C 79.586127 68.05474 78.490969 62.547243 85.560547 62.65625 C 87.191947 62.681121 89.257751 63.003644 91.884766 63.740234 C 91.506416 64.626842 89.687545 64.751014 89.560547 65.787109 C 91.808683 65.302928 94.089863 65.016086 96.662109 64.978516 C 98.831136 64.978251 101.39981 65.287053 103.76172 65.787109 C 103.63472 64.751014 101.81585 64.626842 101.4375 63.740234 C 104.06428 63.003693 106.13033 62.679393 107.76172 62.654297 z M 70.910156 91.671875 C 71.762633 93.790367 71.248933 96.212268 72.814453 96.988281 C 72.748837 95.962769 72.598454 94.418333 72.986328 94.138672 C 76.976724 106.95069 80.284653 100.13684 82.095703 108.51953 C 81.925578 110.67745 76.241363 119.51009 83.0625 126.98633 C 83.677913 131.77946 81.385022 136.95524 86.830078 141.11523 L 87.042969 139.35938 C 90.679885 142.6407 90.372247 140.1057 96.554688 145.73438 L 96.662109 145.82812 L 96.767578 145.73438 C 102.95002 140.10596 102.64238 142.64096 106.2793 139.35938 L 106.49219 141.11523 C 111.93724 136.95524 109.64409 131.77972 110.25977 126.98633 C 117.08064 119.51036 111.39669 110.67745 111.22656 108.51953 C 113.03761 100.13684 116.34581 106.95069 120.33594 94.138672 C 120.72381 94.418333 120.57369 95.962769 120.50781 96.988281 C 122.07386 96.212268 121.55963 93.790367 122.41211 91.671875 C 128.17519 96.744667 135.12755 110.95915 130.0918 125.28906 C 128.9414 120.99175 127.05045 117.59219 123.82812 115.80469 C 124.25383 131.25378 119.27298 132.43415 112.32617 138.6875 C 106.95387 143.52349 98.289175 147.90543 96.660156 151.30078 C 95.031402 147.90543 86.36892 143.52349 80.996094 138.6875 C 74.049546 132.43442 69.068696 131.25378 69.494141 115.80469 C 66.271556 117.59245 64.378909 120.99175 63.228516 125.28906 C 58.193029 110.95915 65.147075 96.744667 70.910156 91.671875 z "
     transform="translate(8.23,53.07)" />
  <path
     style="fill:#a2bab2;stroke:#000;stroke-width:.264583px;stroke-linecap:butt;stroke-linejoin:miter;stroke-opacity:1;fill-opacity:1;--darkreader-inline-fill:#b5aea5;--darkreader-inline-stroke:#e8e6e3"
     d="M52.83 64.454c5.28 10.344.39 22.044-2.362 23.287.233-3.22.634-6.577-1.873-9.952.748 4.507-1.716 16.498-13.086 14.495 1.611-.375 3.172-.974 3.435-1.646-8.13.738-10.39-7.352-17.757-11.37 3.41 4.333 8.304 16.821 7.445 25.856-.9 9.472-7.41 14.928-14.162 5.931 1.147 5.958 3.103 12.21 12.402 21.136a37.447 37.447 0 0 1-10.28-6.973c8.864 17.216 28.595 18.72 36.235 18.83 11.86.172 21.737-3.517 29.705-7.54v-3.688c-15.561 6.35-30.047 5.78-41.538-14.06 1.007 6.221 8.072 17.346 1.529 19.087.016-13.93-10.547-15.719-3.25-32.491 1.791 4.998 3.76 9.82 6.747 13.616.377-6.92 1.221-8.847 2.09-10.508 1.386 14.585 5.616 17.38 9.582 21.27-6.744-8.974-5.666-20.993-3.382-29.58 3.383-12.715 8.8-27.646-1.48-35.7z"
     id="path10" />
  <path
     style="fill:#a2bab2;fill-opacity:1;stroke:#000;stroke-width:.264583px;stroke-linecap:butt;stroke-linejoin:miter;stroke-opacity:1;--darkreader-inline-fill:#b5aea5;--darkreader-inline-stroke:#e8e6e3"
     d="M156.954 64.454c-5.28 10.344-.39 22.044 2.362 23.287-.233-3.22-.634-6.577 1.873-9.952-.748 4.507 1.716 16.498 13.086 14.495-1.611-.375-3.172-.974-3.435-1.646 8.13.738 10.39-7.352 17.758-11.37-3.41 4.333-8.305 16.821-7.446 25.856.9 9.472 7.41 14.928 14.162 5.931-1.147 5.958-3.103 12.21-12.402 21.136a37.447 37.447 0 0 0 10.28-6.973c-8.864 17.216-28.595 18.72-36.235 18.83-11.86.172-21.737-3.517-29.704-7.54v-3.688c15.56 6.35 30.046 5.78 41.537-14.06-1.007 6.221-8.072 17.346-1.529 19.087-.016-13.93 10.547-15.719 3.251-32.491-1.792 4.998-3.76 9.82-6.748 13.616-.377-6.92-1.221-8.847-2.09-10.508-1.386 14.585-5.616 17.38-9.582 21.27 6.744-8.974 5.666-20.993 3.382-29.58-3.383-12.715-8.8-27.646 1.48-35.7z"
     id="path12" />
  <path
     style="fill:#d5e8e1;stroke:#000;stroke-width:.264583px;stroke-linecap:butt;stroke-linejoin:miter;stroke-opacity:1;fill-opacity:1;--darkreader-inline-fill:#c1ddd2;--darkreader-inline-stroke:#e8e6e3"
     d="M45.646 88.867c-3.369 2.718-4.515 3.17-10.137 3.417 1.611-.375 3.172-.974 3.435-1.646-8.13.738-10.39-7.352-17.757-11.37 3.577 6.482 3.36 5.984 6.272 14.469 11.982 7.17 18.468.052 18.187-4.87zM21.718 118.689c3.748-1.144 8.93-4.185 7.006-15.128 0 0-2.11 19.86-14.254 7.494 1.147 5.958 3.103 12.21 12.402 21.136a37.447 37.447 0 0 1-10.28-6.973c8.864 17.216 28.604 18.442 36.235 18.83 7.79.398 8.11-.027 14.071-1.606-12.91-3.507-15.527-5.338-25.904-23.682 1.007 6.221 8.072 17.346 1.529 19.087 1.024-1.643-.308-3.994-.308-3.994-5.375.165-14.927-5.907-20.497-15.164z"
     id="path14" />
  <path
     style="fill:#d5e8e1;fill-opacity:1;stroke:#000;stroke-width:.264583px;stroke-linecap:butt;stroke-linejoin:miter;stroke-opacity:1;--darkreader-inline-fill:#c1ddd2;--darkreader-inline-stroke:#e8e6e3"
     d="M164.138 88.867c3.369 2.718 4.515 3.17 10.137 3.417-1.611-.375-3.172-.974-3.435-1.646 8.13.738 10.39-7.352 17.758-11.37-3.578 6.482-3.362 5.984-6.273 14.469-11.982 7.17-18.468.052-18.187-4.87zM188.066 118.689c-3.748-1.144-8.93-4.185-7.006-15.128 0 0 2.11 19.86 14.254 7.494-1.147 5.958-3.103 12.21-12.402 21.136a37.447 37.447 0 0 0 10.28-6.973c-8.864 17.216-28.604 18.442-36.235 18.83-7.79.398-8.11-.027-14.071-1.606 12.91-3.507 15.528-5.338 25.904-23.682-1.007 6.221-8.072 17.346-1.529 19.087-1.024-1.643.308-3.994.308-3.994 5.376.165 14.927-5.907 20.497-15.164z"
     id="path16" />
  <path
     style="fill:#69938a;stroke:#000;stroke-width:.999999px;stroke-linecap:butt;stroke-linejoin:miter;stroke-opacity:1;fill-opacity:1;--darkreader-inline-fill:#989082;--darkreader-inline-stroke:#e8e6e3"
     d="M354.49 437.393c-26.72-.412-22.586 20.405-26.322 27.617-8.39-32.665-24.49-14.282-75.697-9.06 2.229 5.134 3.905 10.128 26.277 20.316l-10.258-10.94c15.717 3.655 19.001-4.711 33.983-4.324 19.73.178 13.69 15.988 25.52 25.918l-6.264-2.717c3.771 8.54 3.527 18.3 3.455 28.008l7.21-3.926c-7.648 8.21-12.202 17.266-11.095 21.188 27.735-27.881 47.596 20.311 66.351 4.101-1.485 14.407-7.1 16.115-12.425 18.71 3.983 29.27 2.228 50.845-7.381 61.896l-.535-21.32c-19.701 34.762-30.162 63.124-10.707 82.328 1.241 1.779 6.106 8.582 5.543 24.673l-2.63-1.68c-1.358 11.054 18.917 19.234 20.682 19.268l-.017-4.703c4.29 4.241 10.168 7.539 16.207 7.416h.117c6.28.206 11.83-3.316 16.207-7.416l-.018 4.703c1.766-.034 22.04-8.214 20.682-19.267l-2.629 1.68c-.564-16.092 4.301-22.895 5.543-24.674 19.454-19.204 8.994-47.566-10.707-82.329l-.535 21.32c-9.61-11.05-11.364-32.626-7.381-61.896-5.326-2.594-10.94-4.302-12.426-18.709 18.755 16.21 38.617-31.982 66.352-4.101 1.107-3.922-3.448-12.978-11.096-21.188l7.211 3.926c-.072-9.708-.317-19.467 3.455-28.008l-6.264 2.717c11.83-9.93 5.79-25.74 25.52-25.918 14.981-.387 18.265 7.98 33.982 4.324l-10.257 10.94c22.371-10.188 24.048-15.182 26.277-20.317-51.207-5.22-67.31-23.604-75.7 9.06-4.597-8.876 2.728-38.36-50.222-23.513 1.43 3.351 8.303 3.818 8.783 7.734-8.927-1.89-18.638-3.057-26.836-3.056-9.722.142-18.339 1.226-26.836 3.056.48-3.916 7.354-4.383 8.784-7.734-9.929-2.784-17.737-4.009-23.903-4.103z"
     transform="scale(.26458)"
     id="path18" />
  <path
     style="fill:#82b3a8;stroke:#000;stroke-width:.999999px;stroke-linecap:butt;stroke-linejoin:miter;stroke-opacity:1;fill-opacity:1;--darkreader-inline-fill:#88b7ac;--darkreader-inline-stroke:#e8e6e3"
     d="M354.49 437.393c-26.72-.412-22.586 20.405-26.322 27.617-5.877-29.36-25.256-17.47-57.295-11.65 17.045 10.275 31.6 7.642 31.6 7.642 19.73.178 13.69 15.988 25.52 25.918l-6.264-2.717c3.771 8.54 3.527 18.3 3.455 28.008l7.21-3.926c-7.648 8.21-12.202 17.266-11.095 21.188 27.476-42.58 47.591 20.014 66.351 4.101-.016 9.38.643 23.074-4.683 25.668 4.761 21.653 2.224 65.089-10.776 72.52 0 0 .129-8.671-1.787-7.172-5.679 4.444-3.625 23.152-3.625 23.152 12.382 8.19 19.699 17.757 12.16 38.613 0 0 5.147-1.577 6.688-7.832 1.242 1.78 3.087 14.076-2.998 20.752 6.32-4.086 6.003-5.069 7.139-8.074.378 3.802.8 7.368 1.293 10.567-.572 4.319-2.131 8.475-6.131 11.06 2.97 4.677 5.418 7.457 11.457 7.334.02-.028.038-.065.058-.094.02.03.039.066.059.094 6.039.123 8.487-2.655 11.457-7.332-4-2.585-5.56-6.743-6.13-11.062.49-3.199.914-6.765 1.292-10.567 1.135 3.005.818 3.988 7.139 8.074-6.085-6.676-4.242-18.972-3-20.752 1.541 6.255 6.69 7.832 6.69 7.832-7.539-20.856-.222-30.422 12.16-38.613 0 0 2.053-18.708-3.626-23.152-1.915-1.499-1.787 7.172-1.787 7.172-13-7.431-15.537-50.867-10.775-72.52-5.326-2.594-4.669-16.288-4.684-25.668 18.76 15.913 38.875-46.68 66.352-4.101 1.107-3.922-3.448-12.978-11.096-21.188l7.211 3.926c-.072-9.708-.317-19.467 3.455-28.008l-6.264 2.717c11.83-9.93 5.79-25.74 25.52-25.918 0 0 14.554 2.633 31.6-7.643-32.04-5.818-51.418-17.709-57.295 11.65-3.736-7.211.397-28.028-26.323-27.616-6.166.094-13.974 1.32-23.902 4.103 1.43 3.351 8.303 3.818 8.783 7.734-8.497-1.83-17.113-2.914-26.836-3.056-9.722.142-18.339 1.226-26.836 3.056.48-3.916 7.354-4.383 8.784-7.734-9.929-2.784-17.737-4.009-23.903-4.103z"
     transform="scale(.26458)"
     id="path20" />
  <path
     style="fill:#82b3a8;fill-opacity:1;stroke:#000;stroke-width:.264583px;stroke-linecap:butt;stroke-linejoin:miter;stroke-opacity:1;--darkreader-inline-fill:#88b7ac;--darkreader-inline-stroke:#e8e6e3"
     d="M70.236 145.761c-4.138 1.148-8.51 2.24-15.651 2.688v19.976c3.974 5.605 8.576 9.517 12.677 12.982-3.53-10.98-5.88-22.972 2.974-35.646z"
     id="path22" />
  <path
     style="fill:#d5e8e1;stroke:#000;stroke-width:.264583px;stroke-linecap:butt;stroke-linejoin:miter;stroke-opacity:1;fill-opacity:1;--darkreader-inline-fill:#c1ddd2;--darkreader-inline-stroke:#e8e6e3"
     d="M89.118 143.123h2.472c1.436 1.066 2.826 2.363 4.41 2.695-1.074.995-6.555 2.464-6.882-2.695z"
     id="path24" />
  <path
     style="fill:#69938a;stroke:#000;stroke-width:.264583px;stroke-linecap:butt;stroke-linejoin:miter;stroke-opacity:1;fill-opacity:1;--darkreader-inline-fill:#989082;--darkreader-inline-stroke:#e8e6e3"
     d="M99.623 138.298c.078-4.904-2.786-11.665-9.08-5.744 5.127.587 6.575 2.652 9.08 5.744z"
     id="path26" />
  <path
     style="fill:#82b3a8;stroke:#000;stroke-width:.999999px;stroke-linecap:butt;stroke-linejoin:miter;stroke-opacity:1;fill-opacity:1;--darkreader-inline-fill:#88b7ac;--darkreader-inline-stroke:#e8e6e3"
     d="m239.752 375.707.873.31c-.55.236-1.099.466-1.648.704l-19.684 77.697c11.062 31.344 22.91 39.67 30.959 45.691 15.74.107 24.074-3.627 31.408-7.88-33.22-7.312-50.398-26.373-55.226-54.483 45.892 7.258 52.99-4.383 76.828-4.621-.408-1.255-3.828-2.136-14.051-2.17 11.472-5.793 25.796-5.917 39.53 3.836 17.114-12 31.486-15.501 50.378-4.525-.72-1.612-2.035-2.59-1.545-5.487 12.874 8.7 25.019 7.025 36.412.057.49 2.896-.825 3.875-1.545 5.486 23.447-11.81 36.308-4.796 50.38 4.526 13.733-9.753 28.054-9.63 39.527-3.836-10.224.034-13.641.915-14.05 2.17 23.838.238 30.936 11.877 76.829 4.619-4.829 28.11-22.008 47.171-55.229 54.482 7.335 4.253 15.671 7.99 31.41 7.883 8.05-6.022 19.897-14.348 30.96-45.691l-19.684-77.7c-.597-.258-1.193-.508-1.79-.763l1.015-.362c-102.964-45.123-215-44.672-312.057.057z"
     transform="scale(.26458)"
     id="path28" />
  <path
     style="fill:#2b432f;stroke:#000;stroke-width:.264583px;stroke-linecap:butt;stroke-linejoin:miter;stroke-opacity:1;fill-opacity:1;--darkreader-inline-fill:#c5c0b9;--darkreader-inline-stroke:#e8e6e3"
     d="M98.667 185.997c5.357 1.858 4.441-.713 4.862-3.966-.905 1.609-1.544 3.324-4.862 3.966zM94.445 170.7c5.92-.004 10.068 10.341 3.024 13.014.392-.664.598-1.353.55-2.078-1.558 1.454-5.754-10.43-1.434-8.152-.2-1.22-1.2-1.985-2.14-2.784z"
     id="path30" />
  <path
     style="fill:#2b432f;stroke:#000;stroke-width:.999999px;stroke-linecap:butt;stroke-linejoin:miter;stroke-opacity:1;fill-opacity:1;--darkreader-inline-fill:#c5c0b9;--darkreader-inline-stroke:#e8e6e3"
     d="M385.42 645.396c-.954-.025-2.071.038-3.393.215h-.006c8.5 8.48 11.693 16.646 13.614 24.737.02.01.034.014.054.023.298.167.513.24.717.238.012.001.025.004.037.004.01 0 .022-.003.032-.004.206.002.423-.07.724-.24l.051-.021c1.92-8.09 5.113-16.258 13.613-24.737h-.006a25.975 25.975 0 0 0-1.832-.183h-.005a17.488 17.488 0 0 0-1.561-.032 12.2 12.2 0 0 0-1.229.096c-.138.018-.258.044-.388.067-.241.04-.478.083-.694.138-.108.028-.207.061-.31.092-.21.063-.414.13-.602.205-.089.036-.175.075-.26.113a6.27 6.27 0 0 0-.519.266c-.07.04-.141.08-.209.123-.171.107-.333.22-.486.336-.043.032-.088.063-.13.096-.098.078-.187.16-.28.242a11.48 11.48 0 0 0-.55.514c-.39.388-.768.783-1.167 1.164-.12.114-.246.224-.373.334-.06.05-.118.102-.18.152a7.046 7.046 0 0 1-.643.459 6.055 6.055 0 0 1-.328.193 6.155 6.155 0 0 1-.384.188c-.123.056-.245.113-.377.164-.146.055-.308.103-.467.15-.136.041-.265.085-.412.12a8.82 8.82 0 0 1-.89.156c-.048.006-.087.018-.136.023-.05-.006-.09-.017-.14-.023a8.82 8.82 0 0 1-.89-.157c-.148-.034-.277-.078-.413-.119-.16-.047-.32-.095-.467-.15-.133-.05-.254-.108-.377-.164-.13-.06-.26-.119-.379-.184a6.044 6.044 0 0 1-.365-.219 6.337 6.337 0 0 1-.615-.439c-.06-.049-.118-.1-.176-.15a9.947 9.947 0 0 1-.373-.334c-.399-.381-.777-.776-1.168-1.164a11.48 11.48 0 0 0-.549-.514c-.093-.081-.183-.164-.281-.242-.041-.033-.086-.064-.129-.096a6.619 6.619 0 0 0-.486-.336c-.068-.042-.139-.082-.21-.123a6.27 6.27 0 0 0-1.38-.584c-.103-.03-.202-.064-.31-.092a8.935 8.935 0 0 0-.694-.138c-.13-.023-.25-.049-.389-.067a12.201 12.201 0 0 0-1.228-.096h-.006z"
     transform="scale(.26458)"
     id="path32" />
  <path
     style="fill:#82b3a8;fill-opacity:1;stroke:#000;stroke-width:.264583px;stroke-linecap:butt;stroke-linejoin:miter;stroke-opacity:1;--darkreader-inline-fill:#88b7ac;--darkreader-inline-stroke:#e8e6e3"
     d="M139.549 145.761c4.137 1.148 8.508 2.24 15.65 2.688v19.976c-3.974 5.605-8.576 9.517-12.677 12.982 3.53-10.98 5.88-22.972-2.973-35.646z"
     id="path34" />
  <path
     style="fill:#2b432f;stroke:#000;stroke-width:.264583px;stroke-linecap:butt;stroke-linejoin:miter;stroke-opacity:1;fill-opacity:1;--darkreader-inline-fill:#c5c0b9;--darkreader-inline-stroke:#e8e6e3"
     d="M99.623 138.298c-.25-4.028-3.482-9.805-9.08-5.744 5.127.587 6.575 2.652 9.08 5.744z"
     id="path36" />
  <path
     style="fill:#d5e8e1;fill-opacity:1;stroke:#000;stroke-width:.264583px;stroke-linecap:butt;stroke-linejoin:miter;stroke-opacity:1;--darkreader-inline-fill:#c1ddd2;--darkreader-inline-stroke:#e8e6e3"
     d="M120.666 143.123h-2.472c-1.436 1.066-2.826 2.363-4.41 2.695 1.074.995 6.555 2.464 6.882-2.695z"
     id="path38" />
  <path
     style="fill:#69938a;fill-opacity:1;stroke:#000;stroke-width:.264583px;stroke-linecap:butt;stroke-linejoin:miter;stroke-opacity:1;--darkreader-inline-fill:#989082;--darkreader-inline-stroke:#e8e6e3"
     d="M110.161 138.298c-.078-4.904 2.786-11.665 9.08-5.744-5.127.587-6.575 2.652-9.08 5.744z"
     id="path40" />
  <path
     style="fill:#2b432f;fill-opacity:1;stroke:#000;stroke-width:.264583px;stroke-linecap:butt;stroke-linejoin:miter;stroke-opacity:1;--darkreader-inline-fill:#c5c0b9;--darkreader-inline-stroke:#e8e6e3"
     d="M111.117 185.997c-5.356 1.858-4.44-.713-4.862-3.966.905 1.609 1.544 3.324 4.862 3.966zM115.34 170.7c-5.921-.004-10.068 10.341-3.024 13.014-.392-.664-.598-1.353-.55-2.078 1.557 1.454 5.753-10.43 1.433-8.152.2-1.22 1.2-1.985 2.14-2.784zM110.161 138.298c.25-4.028 3.483-9.805 9.08-5.744-5.127.587-6.575 2.652-9.08 5.744z"
     id="path42" />
</svg>
